<svg xmlns="http://www.w3.org/2000/svg" version="1.1" xmlns:xlink="http://www.w3.org/1999/xlink" xmlns:svgjs="http://svgjs.dev/svgjs" viewBox="0 0 800 800"><defs><linearGradient x1="50%" y1="0%" x2="50%" y2="100%" id="ffflurry-grad" gradientTransform="rotate(270)"><stop stop-color="hsl(0, 0%, 100%)" stop-opacity="1" offset="0%"></stop><stop stop-color="hsl(37, 99%, 67%)" stop-opacity="1" offset="45%"></stop><stop stop-color="hsl(316, 73%, 52%)" stop-opacity="1" offset="100%"></stop></linearGradient></defs><rect width="100%" height="100%" fill="hsl(0, 0%, 100%)"></rect><g fill="url(#ffflurry-grad)"><rect width="577" height="3" x="465.5" y="475.5" rx="1.5" transform="rotate(90, 754, 477)" opacity="0.11"></rect><rect width="194" height="3" x="-48" y="257.5" rx="1.5" transform="rotate(90, 49, 259)" opacity="0.55"></rect><rect width="353" height="3" x="312.5" y="173.5" rx="1.5" transform="rotate(90, 489, 175)" opacity="0.13"></rect><rect width="483" height="3" x="82.5" y="694.5" rx="1.5" transform="rotate(90, 324, 696)" opacity="0.99"></rect><rect width="262" height="3" x="352" y="654.5" rx="1.5" transform="rotate(90, 483, 656)" opacity="0.76"></rect><rect width="89" height="3" x="11.5" y="574.5" rx="1.5" transform="rotate(90, 56, 576)" opacity="0.89"></rect><rect width="139" height="3" x="-2.5" y="751.5" rx="1.5" transform="rotate(90, 67, 753)" opacity="0.47"></rect><rect width="323" height="3" x="262.5" y="330.5" rx="1.5" transform="rotate(90, 424, 332)" opacity="0.79"></rect><rect width="287" height="3" x="12.5" y="442.5" rx="1.5" transform="rotate(90, 156, 444)" opacity="0.82"></rect><rect width="522" height="3" x="370" y="296.5" rx="1.5" transform="rotate(90, 631, 298)" opacity="1.00"></rect><rect width="181" height="3" x="432.5" y="268.5" rx="1.5" transform="rotate(90, 523, 270)" opacity="0.81"></rect><rect width="246" height="3" x="-12" y="655.5" rx="1.5" transform="rotate(90, 111, 657)" opacity="0.30"></rect><rect width="259" height="3" x="224.5" y="417.5" rx="1.5" transform="rotate(90, 354, 419)" opacity="0.90"></rect><rect width="517" height="3" x="207.5" y="435.5" rx="1.5" transform="rotate(90, 466, 437)" opacity="0.50"></rect><rect width="171" height="3" x="606.5" y="385.5" rx="1.5" transform="rotate(90, 692, 387)" opacity="0.73"></rect><rect width="308" height="3" x="80" y="298.5" rx="1.5" transform="rotate(90, 234, 300)" opacity="0.11"></rect><rect width="394" height="3" x="-45" y="754.5" rx="1.5" transform="rotate(90, 152, 756)" opacity="0.35"></rect><rect width="457" height="3" x="-190.5" y="438.5" rx="1.5" transform="rotate(90, 38, 440)" opacity="0.29"></rect><rect width="99" height="3" x="279.5" y="87.5" rx="1.5" transform="rotate(90, 329, 89)" opacity="0.13"></rect><rect width="119" height="3" x="702.5" y="601.5" rx="1.5" transform="rotate(90, 762, 603)" opacity="0.09"></rect><rect width="80" height="3" x="204" y="760.5" rx="1.5" transform="rotate(90, 244, 762)" opacity="0.72"></rect><rect width="199" height="3" x="108.5" y="364.5" rx="1.5" transform="rotate(90, 208, 366)" opacity="0.98"></rect><rect width="121" height="3" x="679.5" y="717.5" rx="1.5" transform="rotate(90, 740, 719)" opacity="0.53"></rect><rect width="302" height="3" x="373" y="116.5" rx="1.5" transform="rotate(90, 524, 118)" opacity="0.37"></rect><rect width="256" height="3" x="-17" y="505.5" rx="1.5" transform="rotate(90, 111, 507)" opacity="0.48"></rect><rect width="457" height="3" x="533.5" y="338.5" rx="1.5" transform="rotate(90, 762, 340)" opacity="0.50"></rect><rect width="397" height="3" x="546.5" y="239.5" rx="1.5" transform="rotate(90, 745, 241)" opacity="0.22"></rect><rect width="370" height="3" x="-2" y="583.5" rx="1.5" transform="rotate(90, 183, 585)" opacity="0.89"></rect><rect width="364" height="3" x="293" y="39.5" rx="1.5" transform="rotate(90, 475, 41)" opacity="0.62"></rect><rect width="436" height="3" x="364" y="420.5" rx="1.5" transform="rotate(90, 582, 422)" opacity="0.31"></rect><rect width="48" height="3" x="177" y="34.5" rx="1.5" transform="rotate(90, 201, 36)" opacity="0.58"></rect><rect width="403" height="3" x="549.5" y="62.5" rx="1.5" transform="rotate(90, 751, 64)" opacity="0.13"></rect><rect width="172" height="3" x="191" y="579.5" rx="1.5" transform="rotate(90, 277, 581)" opacity="0.67"></rect><rect width="412" height="3" x="411" y="606.5" rx="1.5" transform="rotate(90, 617, 608)" opacity="0.50"></rect><rect width="98" height="3" x="476" y="348.5" rx="1.5" transform="rotate(90, 525, 350)" opacity="0.16"></rect><rect width="177" height="3" x="601.5" y="577.5" rx="1.5" transform="rotate(90, 690, 579)" opacity="0.57"></rect><rect width="180" height="3" x="555" y="489.5" rx="1.5" transform="rotate(90, 645, 491)" opacity="0.74"></rect><rect width="27" height="3" x="338.5" y="770.5" rx="1.5" transform="rotate(90, 352, 772)" opacity="0.90"></rect><rect width="394" height="3" x="238" y="524.5" rx="1.5" transform="rotate(90, 435, 526)" opacity="0.31"></rect><rect width="150" height="3" x="514" y="192.5" rx="1.5" transform="rotate(90, 589, 194)" opacity="0.08"></rect><rect width="444" height="3" x="429" y="68.5" rx="1.5" transform="rotate(90, 651, 70)" opacity="0.25"></rect><rect width="593" height="3" x="281.5" y="692.5" rx="1.5" transform="rotate(90, 578, 694)" opacity="0.54"></rect><rect width="494" height="3" x="326" y="51.5" rx="1.5" transform="rotate(90, 573, 53)" opacity="0.12"></rect><rect width="425" height="3" x="154.5" y="583.5" rx="1.5" transform="rotate(90, 367, 585)" opacity="0.24"></rect><rect width="127" height="3" x="173.5" y="226.5" rx="1.5" transform="rotate(90, 237, 228)" opacity="0.37"></rect><rect width="454" height="3" x="218" y="235.5" rx="1.5" transform="rotate(90, 445, 237)" opacity="0.87"></rect><rect width="397" height="3" x="119.5" y="319.5" rx="1.5" transform="rotate(90, 318, 321)" opacity="0.25"></rect><rect width="469" height="3" x="303.5" y="545.5" rx="1.5" transform="rotate(90, 538, 547)" opacity="0.70"></rect><rect width="280" height="3" x="87" y="677.5" rx="1.5" transform="rotate(90, 227, 679)" opacity="0.75"></rect><rect width="195" height="3" x="385.5" y="763.5" rx="1.5" transform="rotate(90, 483, 765)" opacity="0.83"></rect><rect width="151" height="3" x="566.5" y="758.5" rx="1.5" transform="rotate(90, 642, 760)" opacity="0.15"></rect><rect width="188" height="3" x="255" y="209.5" rx="1.5" transform="rotate(90, 349, 211)" opacity="0.80"></rect><rect width="227" height="3" x="293.5" y="695.5" rx="1.5" transform="rotate(90, 407, 697)" opacity="0.19"></rect><rect width="512" height="3" x="-140" y="325.5" rx="1.5" transform="rotate(90, 116, 327)" opacity="0.50"></rect><rect width="143" height="3" x="345.5" y="128.5" rx="1.5" transform="rotate(90, 417, 130)" opacity="0.80"></rect><rect width="578" height="3" x="-24" y="467.5" rx="1.5" transform="rotate(90, 265, 469)" opacity="0.28"></rect><rect width="252" height="3" x="-61" y="86.5" rx="1.5" transform="rotate(90, 65, 88)" opacity="0.41"></rect><rect width="644" height="3" x="-158" y="164.5" rx="1.5" transform="rotate(90, 164, 166)" opacity="0.29"></rect><rect width="368" height="3" x="70" y="112.5" rx="1.5" transform="rotate(90, 254, 114)" opacity="0.92"></rect><rect width="148" height="3" x="-48" y="683.5" rx="1.5" transform="rotate(90, 26, 685)" opacity="0.51"></rect><rect width="64" height="3" x="672" y="165.5" rx="1.5" transform="rotate(90, 704, 167)" opacity="0.39"></rect><rect width="165" height="3" x="289.5" y="29.5" rx="1.5" transform="rotate(90, 372, 31)" opacity="0.97"></rect></g></svg>